<?xml version="1.0" standalone="no"?>
<!DOCTYPE svg PUBLIC "-//W3C//DTD SVG 20010904//EN"
 "http://www.w3.org/TR/2001/REC-SVG-20010904/DTD/svg10.dtd">
<svg version="1.0" xmlns="http://www.w3.org/2000/svg"
 width="700.000000pt" height="700.000000pt" viewBox="0 0 700.000000 700.000000"
 preserveAspectRatio="xMidYMid meet">
<metadata>
Created by potrace 1.11, written by Peter Selinger 2001-2013
</metadata>
<g transform="translate(0.000000,700.000000) scale(0.100000,-0.100000)"
fill="#000000" stroke="none">
<path d="M205 6988 c-34 -18 -67 -52 -77 -78 -6 -16 -10 -1201 -10 -3293 0
-3190 1 -3268 19 -3304 12 -22 35 -45 58 -57 38 -19 60 -20 2500 -20 l2462 0
35 22 c67 41 87 130 45 193 -42 63 -66 69 -304 69 l-211 0 0 938 0 938 217 1
c203 0 218 2 253 22 96 57 88 194 -14 247 -15 8 -30 14 -33 14 -3 0 -99 0
-214 0 l-209 0 0 938 0 939 938 0 938 0 1 -204 c1 -224 5 -243 62 -283 41 -30
119 -32 157 -3 15 11 35 34 45 52 18 30 19 87 19 1397 0 1543 6 1424 -77 1464
-41 20 -49 20 -3311 20 -2363 -1 -3275 -4 -3289 -12z m2073 -1210 l0 -938
-938 0 -938 0 0 938 -1 939 939 0 938 0 0 -939z m2160 0 l0 -938 -938 0 -938
0 0 938 1 939 937 0 938 0 0 -939z m2160 0 l1 -938 -939 0 -938 0 0 938 0 939
938 0 938 0 0 -939z m-4321 -2160 l1 -938 -938 0 -938 0 0 932 c0 513 1 935 3
939 3 3 424 5 937 5 l933 -1 2 -937z m2161 0 l0 -938 -937 2 -936 3 -1 936 -2
936 938 0 938 0 0 -939z m-2161 -2160 l1 -938 -938 0 -938 0 0 932 c0 513 1
935 3 939 2 3 424 5 937 5 l933 -1 2 -937z m2160 0 l1 -938 -938 0 -938 0 0
938 0 938 937 0 936 -1 2 -937z"/>
<path d="M1372 6469 c-31 -12 -62 -36 -142 -112 -36 -34 -132 -124 -212 -200
-104 -98 -150 -148 -158 -173 -40 -119 88 -226 197 -166 17 9 71 54 119 99 47
46 89 81 93 79 3 -2 6 -181 5 -398 -1 -422 0 -437 51 -483 48 -45 149 -41 191
8 41 47 41 53 40 662 -1 487 -3 594 -15 615 -20 35 -62 70 -86 71 -11 0 -29 2
-40 4 -11 2 -31 -1 -43 -6z"/>
<path d="M2967 4269 c-73 -12 -120 -67 -119 -141 1 -50 26 -91 72 -117 37 -20
50 -21 449 -21 454 0 455 0 487 -62 30 -57 7 -126 -53 -157 -14 -7 -105 -11
-273 -11 -277 0 -300 -4 -340 -59 -56 -80 -13 -200 79 -218 20 -3 144 -7 276
-8 132 -1 249 -5 260 -10 47 -20 73 -78 60 -135 -8 -37 -57 -80 -93 -81 -15
-1 -198 -2 -407 -4 -209 -1 -392 -3 -407 -4 -36 -1 -92 -52 -104 -93 -20 -65
10 -136 71 -171 29 -17 862 -19 925 -2 137 36 245 139 287 273 32 103 9 256
-53 338 l-23 31 20 29 c85 126 96 276 28 413 -45 94 -170 188 -274 206 -48 9
-817 12 -868 4z"/>
<path d="M6234 3914 c-31 -15 -485 -539 -513 -592 -12 -23 -14 -263 -15 -1622
0 -1510 1 -1597 18 -1625 10 -17 30 -39 44 -50 26 -19 45 -20 515 -22 525 -3
516 -4 563 49 12 12 25 34 29 46 12 41 8 3183 -4 3215 -6 15 -73 101 -148 190
-76 89 -147 173 -158 186 -11 13 -27 31 -36 40 -8 9 -37 43 -65 76 -67 80 -78
91 -113 109 -38 20 -77 20 -117 0z m191 -499 c66 -77 132 -155 148 -173 56
-67 57 -67 -281 -67 -296 0 -302 0 -302 20 0 11 51 79 113 151 61 71 130 151
151 177 22 26 42 44 46 40 4 -5 60 -71 125 -148z m173 -1537 l1 -1013 -302 0
-302 0 -3 1013 -2 1012 304 0 304 0 0 -1012z m-11 -1297 c10 -1 12 -37 10
-148 l-2 -148 -302 -1 -303 0 0 147 c0 89 4 149 10 151 8 2 534 1 587 -1z"/>
</g>
</svg>
